<?xml version="1.0" standalone="no"?>
<!DOCTYPE svg PUBLIC "-//W3C//DTD SVG 20010904//EN"
 "http://www.w3.org/TR/2001/REC-SVG-20010904/DTD/svg10.dtd">
<svg version="1.0" xmlns="http://www.w3.org/2000/svg"
 width="400.000000pt" height="350.000000pt" viewBox="0 0 400.000000 350.000000"
 preserveAspectRatio="xMidYMid meet">
<metadata>
Created by potrace 1.16, written by Peter Selinger 2001-2019
</metadata>
<g transform="translate(0.000000,350.000000) scale(0.100000,-0.100000)"
fill="#000000" stroke="none">
<path d="M3261 2134 c-18 -13 -22 -24 -19 -54 3 -36 2 -37 -17 -24 -39 27
-123 7 -140 -33 -30 -72 -20 -170 22 -203 58 -46 159 -34 193 23 17 28 20 51
20 170 0 125 -2 137 -18 137 -10 0 -28 -7 -41 -16z"/>
<path d="M780 2126 c-188 -40 -329 -132 -386 -251 -19 -40 -24 -67 -24 -131 0
-70 4 -89 31 -142 54 -109 172 -193 327 -233 106 -27 309 -27 418 1 214 54
350 188 361 358 12 173 -128 324 -362 387 -83 22 -283 28 -365 11z m395 -50
c44 -14 102 -39 130 -55 l49 -30 -29 -12 c-17 -7 -58 -14 -92 -17 -51 -3 -77
1 -155 28 -101 35 -166 37 -215 5 -27 -18 -121 -45 -156 -45 -30 0 -167 41
-167 50 0 11 119 67 180 84 87 24 97 25 240 22 114 -3 148 -8 215 -30z m-98
-108 c66 -29 164 -35 238 -14 l58 17 29 -28 c29 -28 59 -77 72 -120 6 -18 3
-23 -10 -23 -9 0 -64 -16 -121 -35 l-105 -35 -112 94 c-62 52 -124 100 -139
105 -34 13 -63 3 -124 -44 -46 -35 -86 -45 -99 -24 -10 17 86 108 132 125 48
18 115 11 181 -18z m-450 -21 c68 -18 88 -20 122 -11 23 6 41 9 41 6 0 -2 -14
-20 -31 -39 -26 -30 -29 -38 -17 -49 32 -32 70 -27 133 15 93 64 96 63 263
-82 100 -86 120 -118 86 -131 -27 -10 -34 -7 -84 40 -59 55 -68 45 -10 -11 44
-43 50 -69 20 -85 -23 -13 -44 -4 -79 34 -14 14 -29 26 -34 26 -5 0 7 -18 27
-41 30 -32 35 -43 25 -55 -18 -22 -40 -17 -76 18 -18 18 -33 27 -33 22 0 -6
11 -21 25 -34 28 -26 25 -40 -11 -40 -25 0 -28 4 -39 53 -3 17 -18 35 -35 45
-17 9 -30 22 -30 29 0 19 -30 43 -54 43 -13 0 -30 7 -37 16 -9 12 -24 15 -51
11 -21 -3 -41 -1 -44 5 -4 5 -21 7 -39 4 -22 -4 -48 1 -86 18 -30 13 -80 29
-113 37 -32 7 -60 18 -63 25 -7 18 23 76 64 124 28 32 41 40 57 35 12 -3 58
-16 103 -28z m-39 -218 c32 -14 42 -23 38 -35 -8 -21 9 -51 34 -59 11 -4 32
-17 45 -31 13 -13 33 -24 45 -24 11 0 20 -4 20 -9 0 -9 38 -27 51 -23 4 0 15
-8 24 -18 19 -21 79 -28 90 -10 4 6 15 5 30 -2 19 -8 37 -7 80 6 30 10 58 22
61 27 3 5 21 16 41 24 19 8 37 24 40 35 3 11 13 20 23 20 22 0 47 29 52 60 3
22 15 29 98 57 52 17 101 32 108 32 20 1 14 -59 -12 -114 -69 -148 -273 -245
-515 -245 -140 0 -228 18 -324 64 -123 59 -194 133 -217 228 -19 76 -14 80 71
56 40 -11 92 -29 117 -39z m121 -26 c8 -15 12 -16 22 -5 18 17 46 15 61 -5 7
-10 26 -18 43 -18 26 0 30 -4 33 -31 2 -25 7 -31 21 -27 22 5 51 -21 51 -46 0
-44 -65 -54 -86 -14 -7 16 -14 19 -21 12 -14 -14 -53 5 -53 25 0 9 -7 12 -20
9 -24 -6 -50 13 -50 38 0 13 -7 17 -26 16 -34 -3 -53 25 -35 47 18 21 48 20
60 -1z"/>
<path d="M1711 2056 c-40 -23 -50 -54 -51 -158 l0 -98 40 0 39 0 3 98 c3 93 4
97 27 100 37 6 44 -11 42 -107 l-2 -91 40 0 40 0 3 98 3 97 35 0 35 0 3 -93
c3 -89 4 -93 28 -102 55 -21 56 -20 52 101 l-3 111 -34 30 c-32 28 -37 30 -90
24 -31 -3 -60 -6 -66 -6 -5 1 -35 3 -65 6 -36 3 -63 -1 -79 -10z"/>
<path d="M2140 2057 c-61 -31 -89 -130 -56 -196 42 -81 165 -90 221 -17 14 18
25 36 25 39 0 14 -68 7 -80 -8 -25 -30 -100 -14 -100 22 0 10 23 13 90 13 l90
0 0 30 c0 96 -104 160 -190 117z"/>
<path d="M2419 2055 c-43 -23 -59 -71 -59 -174 l0 -91 40 0 40 0 0 88 c0 96 7
112 52 112 26 0 28 3 28 40 0 40 0 40 -37 40 -21 -1 -50 -7 -64 -15z"/>
<path d="M2573 2036 c-33 -30 -37 -39 -41 -92 -3 -50 0 -65 20 -94 29 -42 83
-65 133 -56 43 8 92 51 101 89 6 26 5 27 -33 27 -30 0 -40 -5 -48 -22 -13 -30
-64 -37 -82 -12 -20 27 -16 98 5 117 25 22 58 21 74 -2 7 -10 29 -20 51 -23
31 -3 37 -1 37 15 0 10 -15 34 -34 53 -31 31 -40 34 -90 34 -50 0 -60 -4 -93
-34z"/>
<path d="M2846 2049 c-15 -12 -26 -30 -26 -45 0 -21 5 -24 34 -24 21 0 36 6
40 15 6 17 52 20 61 4 10 -15 1 -20 -51 -30 -63 -12 -94 -42 -94 -89 0 -71 74
-107 155 -75 59 22 75 53 75 145 0 62 -3 74 -25 95 -33 34 -128 36 -169 4z"/>
<path d="M3406 2049 c-55 -43 -71 -119 -40 -184 40 -85 166 -98 229 -24 20 25
25 41 25 85 0 99 -44 144 -138 144 -35 0 -57 -6 -76 -21z"/>
<path d="M2116 1749 l-26 -20 0 -160 0 -159 40 0 40 0 0 180 c0 196 -1 200
-54 159z"/>
<path d="M2390 1757 c-25 -13 -25 -14 -25 -150 0 -135 0 -137 27 -163 37 -37
118 -44 166 -15 42 27 55 61 50 138 -3 48 -9 68 -28 88 -30 32 -85 43 -120 23
l-25 -14 3 53 c4 58 -2 63 -48 40z"/>
<path d="M2721 1677 c-60 -21 -76 -55 -79 -168 l-4 -99 41 0 41 0 0 90 c0 95
8 110 59 110 18 0 21 6 21 40 0 35 -3 40 -22 39 -13 0 -38 -5 -57 -12z"/>
<path d="M2881 1672 c-93 -50 -93 -199 -2 -247 63 -32 147 -11 176 45 8 16 15
31 15 35 0 14 -65 3 -88 -16 -38 -29 -91 -13 -92 29 0 9 25 12 90 12 l90 0 0
33 c0 44 -34 95 -75 113 -46 19 -73 18 -114 -4z"/>
<path d="M2230 1545 l0 -135 40 0 40 0 0 135 0 135 -40 0 -40 0 0 -135z"/>
</g>
</svg>
